<svg xmlns="http://www.w3.org/2000/svg" width="256" height="256"><path fill-opacity=".016" d="M0 128.004v128.004l128.25-.254 128.25-.254.254-127.75L257.008 0H0v128.004m.485.496c0 70.4.119 99.053.265 63.672.146-35.38.146-92.98 0-128C.604 29.153.485 58.1.485 128.5" fill="#1976D2" fill-rule="evenodd"/><path fill-opacity=".378" d="M76 51.709c-.825.304-2.287 1.238-3.25 2.076-1.636 1.426-1.75 6.17-1.75 72.87 0 70.012.037 71.382 2 73.345 1.795 1.795 3.333 2 15 2h13v-36.962c0-34.85.118-37.277 2.056-42.458 6.858-18.33 31.894-22.668 44.986-7.795 6.664 7.571 6.958 9.722 6.958 50.897V202h12.811c11.511 0 13.034-.207 15-2.039l2.189-2.039v-71.306c0-71.186-.004-71.309-2.102-73.211-1.782-1.615-4.009-1.956-14.645-2.24l-12.543-.334-2.26 2.834-2.26 2.835h-46.38l-2.192-2.75c-2.171-2.722-2.309-2.749-13.656-2.671-6.304.043-12.137.327-12.962.63m27.694-.07c-1.919 1.92 2.638 2.361 24.365 2.361C148.673 54 152 53.792 152 52.5c0-1.291-3.315-1.5-23.833-1.5-13.109 0-24.121.288-24.473.639m15.931 58.83c-8.449 3.012-14.816 12.194-14.871 21.45-.083 13.696 9.619 23.507 23.246 23.507 13.661 0 23.03-9.437 22.978-23.144-.028-7.425-2.514-12.873-8.027-17.592-6.598-5.648-15.038-7.175-23.326-4.221m-.877 5.6c-4.798 2.533-8.551 8.215-9.369 14.185-.529 3.86-.183 5.618 1.962 9.966 3.194 6.473 7.941 9.909 14.573 10.546 6.572.631 11.27-1.12 15.466-5.765 6.369-7.049 6.956-16.507 1.501-24.168-4.675-6.566-16.353-8.871-24.133-4.764m4.887 11.004c-5.331 4.193-2.348 12.26 4.534 12.26 6.403 0 9.241-8.292 4.196-12.26-1.449-1.14-3.413-2.073-4.365-2.073-.952 0-2.916.933-4.365 2.073" fill="#1976D2" fill-rule="evenodd"/><path fill-opacity=".302" d="M73 54c-1.962 1.962-2 3.333-2 72.545v70.546l2.485 2.485c2.413 2.413 2.844 2.478 14.75 2.205l12.265-.281.5-38.5c.366-28.166.844-39.277 1.78-41.394 2.296-5.191 6.969-10.15 12.396-13.157 4.567-2.53 6.39-2.949 12.824-2.949 6.461 0 8.251.416 12.923 3 5.151 2.85 9.899 8.008 12.426 13.5.775 1.682 1.315 15.098 1.651 41l.5 38.5 12.265.281c11.906.273 12.337.208 14.75-2.205l2.485-2.485v-70.546c0-69.212-.038-70.583-2-72.545-1.789-1.789-3.333-2-14.635-2-12.194 0-12.717.087-14.953 2.5l-2.317 2.5h-46.19l-2.317-2.5c-2.236-2.413-2.759-2.5-14.953-2.5-11.302 0-12.846.211-14.635 2m31-1c0 .638 8.48 1 23.441 1 14.549 0 23.675-.379 24.059-1 .405-.656-7.656-1-23.441-1-15.373 0-24.059.361-24.059 1m18.123 57.002c-9.335 2.204-17.144 12.446-17.101 22.427C105.078 145.297 114.956 155 128 155c17.388 0 28.136-17.301 20.397-32.832-3.035-6.088-7.423-9.77-14.011-11.752-5.144-1.548-7.169-1.617-12.263-.414m-.486 4.463c-17.844 6.361-16.385 31.56 2.113 36.481 11.442 3.044 23.165-6.412 23.228-18.736.041-7.997-6.036-16.021-13.759-18.166-4.806-1.335-6.868-1.26-11.582.421m.92 13.758c-5.042 7.198 4.945 15.04 10.37 8.142 2.477-3.148 2.605-5.161.516-8.142-2.189-3.125-8.697-3.125-10.886 0" fill="#1976D2" fill-rule="evenodd"/><path fill-opacity=".486" d="M73.435 54.474l-2.474 2.475.269 70.606c.262 68.575.326 70.648 2.211 72.026 1.426 1.043 5.192 1.419 14.195 1.419H99.89l.305-37.75.305-37.75 2.686-5.09c5.214-9.882 14.071-15.366 24.814-15.366 11.044 0 20.583 6.154 25.13 16.214 2.337 5.168 2.374 5.768 2.676 42.492l.306 37.25h12.253c9.002 0 12.768-.376 14.194-1.419 1.885-1.378 1.949-3.451 2.211-72.026l.269-70.606-2.474-2.475C180.204 52.113 179.534 52 167.939 52c-11.77 0-12.213.078-14.118 2.5l-1.966 2.5h-47.71l-1.966-2.5c-1.905-2.422-2.348-2.5-14.118-2.5-11.595 0-12.265.113-14.626 2.474m42.372-1.727c6.769.174 17.569.173 24-.001 6.431-.174.893-.315-12.307-.315-13.2.001-18.462.143-11.693.316M119 111.59c-15.484 6.688-18.356 27.546-5.279 38.334 16.525 13.631 41.313-1.942 36.307-22.809-1.455-6.062-6.882-12.69-12.472-15.229-4.944-2.246-13.718-2.386-18.556-.296m-.093 3.738c-8.694 4.591-12.936 16.963-8.639 25.195C113.585 146.88 121.497 152 128 152c6.441 0 14.412-5.118 17.661-11.338.815-1.562 1.482-5.327 1.482-8.368 0-10.705-8.522-19.294-19.143-19.294-2.976 0-6.293.849-9.093 2.328m4.623 12.639c-2.472 2.732-2.26 7.023.456 9.223 4.394 3.558 10.014.981 10.014-4.592 0-5.933-6.635-8.868-10.47-4.631" fill="#1976D2" fill-rule="evenodd"/></svg>