<?xml version="1.0" encoding="UTF-8" standalone="no"?>
<!-- Generator: Adobe Illustrator 19.0.0, SVG Export Plug-In . SVG Version: 6.00 Build 0)  -->

<svg
   xmlns:dc="http://purl.org/dc/elements/1.1/"
   xmlns:cc="http://creativecommons.org/ns#"
   xmlns:rdf="http://www.w3.org/1999/02/22-rdf-syntax-ns#"
   xmlns:svg="http://www.w3.org/2000/svg"
   xmlns="http://www.w3.org/2000/svg"
   xmlns:sodipodi="http://sodipodi.sourceforge.net/DTD/sodipodi-0.dtd"
   xmlns:inkscape="http://www.inkscape.org/namespaces/inkscape"
   version="1.1"
   id="Layer_1"
   x="0px"
   y="0px"
   viewBox="0 0 494.4 494.4"
   style="enable-background:new 0 0 494.4 494.4;"
   xml:space="preserve"
   sodipodi:docname="loading.svg"
   inkscape:version="0.92.4 5da689c313, 2019-01-14"><metadata
   id="metadata53"><rdf:RDF><cc:Work
       rdf:about=""><dc:format>image/svg+xml</dc:format><dc:type
         rdf:resource="http://purl.org/dc/dcmitype/StillImage" /></cc:Work></rdf:RDF></metadata><defs
   id="defs51" /><sodipodi:namedview
   pagecolor="#ffffff"
   bordercolor="#666666"
   borderopacity="1"
   objecttolerance="10"
   gridtolerance="10"
   guidetolerance="10"
   inkscape:pageopacity="0"
   inkscape:pageshadow="2"
   inkscape:window-width="1920"
   inkscape:window-height="1027"
   id="namedview49"
   showgrid="false"
   inkscape:zoom="0.47734628"
   inkscape:cx="247.2"
   inkscape:cy="247.2"
   inkscape:window-x="0"
   inkscape:window-y="24"
   inkscape:window-maximized="1"
   inkscape:current-layer="Layer_1" />
<path
   style="fill:#13a289"
   d="m 480.4,209.8 c -4.4,4.4 -13.2,6.8 -19.6,6.8 H 325.2 c -12.8,0 -19.2,-10 -19.2,-23.2 v -23.6 c 0,-13.2 6.4,-25.6 19.2,-25.6 H 370 c -32.4,-32 -79.2,-58.4 -130,-58.4 -74,0 -140,48.4 -164.4,119.6 -6.4,18.4 -26.4,28.4 -44.4,22 C 13.2,221 3.6,200.6 10,182.2 44,82.6 140.4,15.8 244,15.8 311.2,15.8 370.4,43.4 422.4,91 V 55.8 C 422.4,42.6 425.2,29 438,29 h 22.8 c 12.8,0 29.6,14 29.6,26.8 v 138 c -0.4,6 -6,11.6 -10,16 z"
   id="path2"
   inkscape:connector-curvature="0" />
<path
   style="fill:#61c2ab"
   d="m 239.6,35.8 c -55.2,0 -106.8,20.8 -146.8,55.6 0,0 -12.8,11.2 -22,22 -18.4,22 -33.6,47.2 -43.2,75.6 -1.2,4 -1.2,8.4 0.8,12 1.6,4 4.8,6.8 8.8,8 1.6,0.4 3.2,0.8 5.2,0.8 6.4,0 12.4,-4.4 14.8,-10.4 27.2,-79.2 100.4,-132 182.8,-132 55.2,0 108,24 144.8,66 5.2,6 6.4,13.2 3.2,20.4 -3.2,7.2 -10,10.8 -17.6,10.8 h -44.8 c -2,0 0.8,3.6 0.8,5.6 v 23.6 c 0,1.2 -2,1.6 -1.2,2.4 0.4,0.4 -0.8,0.8 0.4,0.8 h 135.6 c 1.2,0 4.8,0 5.6,-0.8 0.4,-0.4 4,-1.2 4,-2.4 v -138 c 0,-2 -7.2,-6.8 -9.6,-6.8 h -18.8 c -2,0 0.4,4.8 0.4,6.8 V 91 c 0,8 -8.8,15.2 -16.4,18.4 -2.4,0.8 -6.8,1.6 -9.2,1.6 -5.2,0 -11.2,-2 -14.8,-6 C 360,60.6 302.4,35.8 240.8,35.8"
   id="path4"
   inkscape:connector-curvature="0" />
<path
   d="m 42.4,233.4 c 5.6,0 11.2,-1.2 16.4,-4 9.6,-4.8 16.8,-12.8 20.4,-22.8 24,-70 88.4,-116.8 160.8,-116.8 40.8,0 84.4,18.4 120,50.4 h -34.8 c -13.6,0 -23.2,12 -23.2,29.6 v 23.6 c 0,16.4 9.2,27.2 23.2,27.2 h 135.6 c 7.2,0 17.2,-2.8 22.4,-8 l 0.4,-0.4 c 4.4,-4.4 10.8,-10.8 10.8,-18.8 V 49.8 c 0,-14.4 -12,-25.2 -27.6,-25.2 h -26 c -14.4,0 -22.4,8.8 -22.4,25.2 V 82.2 C 364.8,35.8 306,12.2 244,12.2 138,12.2 40.4,81.8 6,181.4 c -7.2,20.4 3.6,43.2 24,50.4 3.6,0.8 8,1.6 12.4,1.6 z M 239.6,82.2 c -75.6,0 -143.2,49.2 -168.4,122 -2.8,8 -8.4,14.8 -16,18.4 -7.2,3.6 -15.6,4 -23.2,1.2 C 16,218.2 7.6,200.2 13.2,183.8 46.4,87.4 140.8,20.2 243.6,20.2 c 62.8,0 122,24.8 176,74 1.2,1.2 2.8,1.2 4.4,0.8 1.6,-0.8 2.4,-2 2.4,-3.6 V 50.2 c 0,-15.2 8,-17.2 14.4,-17.2 h 26 c 9.6,0 19.6,6 19.6,17.2 v 143.6 c 0,4.8 -4.8,9.6 -8.4,13.2 l -0.4,0.4 v 0 c -3.2,3.2 -11.2,5.6 -16.8,5.6 H 325.2 C 311.6,213 310,199.8 310,193.8 v -23.6 c 0,-10.8 4.8,-21.6 15.2,-21.6 H 370 c 1.6,0 3.2,-0.8 3.6,-2.4 0.8,-1.6 0.4,-3.2 -0.8,-4.4 C 334,103.8 285.6,82.2 239.6,82.2 Z"
   id="path6"
   inkscape:connector-curvature="0" />
<path
   d="m 42.4,213.8 c 8.4,0 15.6,-5.2 18.4,-13.2 C 87.2,123.4 159.2,71 239.6,71 c 54.4,0 106,23.6 141.6,64.8 4,4.8 4.8,10.4 2.4,16 -2.4,5.2 -7.6,8.4 -14,8.4 H 330 c -4.4,0 -8,4 -8,8.4 v 24.8 c 0,3.6 3.2,7.2 8,7.2 h 130.4 c 4.8,0 6.8,-0.8 7.6,-1.6 h 0.4 c 1.6,-0.4 5.2,-2 5.2,-5.6 V 51.8 c 0,-4.4 -2.8,-7.2 -7.6,-7.2 h -22 c -4,0 -6.8,3.2 -6.8,7.6 V 91 c 0,5.6 -6.8,12 -13.6,14.4 -1.6,0.8 -5.6,1.2 -8,1.2 -4.4,0 -9.2,-2 -12,-4.8 C 360.4,56.6 302,31.4 239.2,31.4 c 0,0 0,0 -0.4,0 0,0 0,0 -0.4,0 -54.8,0 -108,20 -149.6,56.8 -1.6,1.6 -2,4 -0.4,5.6 1.6,1.6 4,2 5.6,0.4 40,-35.2 91.2,-54.8 144.4,-54.8 0,0 0,0 0.4,0 0,0 0,0 0.4,0 60.8,0 116.8,24 158.4,67.6 4,4.4 11.2,7.2 18,7.2 2.8,0 7.6,-0.4 10.8,-1.6 8.8,-3.6 18.8,-12 18.8,-22 V 52.2 h 20 V 191 c -0.8,0.4 -1.2,0.4 -2,0.8 -0.8,0 -2.4,0.4 -3.6,0.4 H 329.2 v 0 -23.6 c 0,0 0,-0.4 0.4,-0.4 h 39.6 c 9.6,0 17.6,-5.2 21.2,-13.2 3.6,-8.4 2.4,-17.6 -4,-24.8 C 349.2,87.4 295.2,62.6 238.8,62.6 154.8,62.6 80,117 52.4,197.4 c -2,6 -8.4,9.2 -14.4,7.2 -2.8,-1.2 -5.2,-3.2 -6.4,-6 -1.2,-2.8 -1.6,-6 -0.4,-9.2 9.6,-27.6 23.6,-52.4 42.4,-74 1.6,-1.6 1.2,-4 -0.4,-5.6 -1.6,-1.6 -4,-1.2 -5.6,0.4 -19.6,22.4 -34.4,48.4 -44,76.8 -1.6,4.8 -1.6,10.4 0.8,15.2 2.4,4.8 6,8.4 11.2,10 2.4,1.2 4.8,1.6 6.8,1.6 z"
   id="path8"
   inkscape:connector-curvature="0" />
<path
   style="fill:#13a289"
   d="m 14.4,284.2 c 4.4,-4.4 13.2,-6.8 19.6,-6.8 h 135.6 c 12.8,0 19.2,10 19.2,23.2 v 23.6 c 0,13.2 -6.4,25.6 -19.2,25.6 h -44.8 c 32.4,32 79.2,58.4 130,58.4 74,0 140,-48.4 164.4,-119.6 6.4,-18.4 26.4,-28.4 44.4,-22 18,6.4 27.6,26.8 21.2,45.2 -34,99.6 -130.4,166.4 -234,166.4 -67.2,0 -126.4,-27.6 -178.4,-75.2 v 35.2 c 0,13.2 -2.8,26.8 -15.6,26.8 H 34 C 21.2,465 4.4,451 4.4,438.2 v -138 c 0,-6 5.6,-11.6 10,-16 z"
   id="path10"
   inkscape:connector-curvature="0" />
<path
   style="fill:#61c2ab"
   d="m 254.8,458.2 c 55.2,0 106.8,-20.8 146.8,-55.6 0,0 12.8,-11.2 22,-22 18.4,-22 33.6,-47.2 43.2,-75.6 1.2,-4 1.2,-8.4 -0.8,-12 -1.6,-4 -4.8,-6.8 -8.8,-8 -1.6,-0.4 -3.2,-0.8 -5.2,-0.8 -6.4,0 -12.4,4.4 -14.8,10.4 -27.2,79.2 -100.4,132 -182.8,132 -55.2,0 -108,-24 -144.8,-66 -5.2,-6 -6.4,-13.2 -3.2,-20.4 3.2,-7.2 10,-10.8 17.6,-10.8 h 44.8 c 2,0 -0.8,-3.6 -0.8,-5.6 v -23.6 c 0,-1.2 2,-1.6 1.2,-2.4 -0.4,-0.4 0.8,-0.8 -0.4,-0.8 H 33.2 c -1.2,0 -4.8,0 -5.6,0.8 -0.4,0.4 -4,1.2 -4,2.4 v 138 c 0,2 7.2,6.8 9.6,6.8 H 52 c 2,0 -0.4,-4.8 -0.4,-6.8 V 403 c 0,-8 8.8,-15.2 16.4,-18.4 2.4,-0.8 6.8,-1.6 9.2,-1.6 5.2,0 11.2,2 14.8,6 42.4,44.4 100,69.2 161.6,69.2"
   id="path12"
   inkscape:connector-curvature="0" />
<path
   d="m 250.8,482.2 c 106,0 203.6,-69.6 238,-169.2 7.2,-20.4 -3.6,-43.2 -24,-50.4 -9.6,-3.6 -20,-2.8 -29.2,1.6 -9.6,4.8 -16.8,12.8 -20.4,22.8 -24,70 -88.4,116.8 -160.8,116.8 -40.8,0 -84.4,-18.4 -120,-50.4 h 34.8 c 13.6,0 23.2,-12 23.2,-29.6 v -23.6 c 0,-16.4 -9.2,-27.2 -23.2,-27.2 H 33.6 c -7.2,0 -17.2,2.8 -22.4,8 l -0.4,0.4 C 6.4,285.8 0,292.2 0,300.2 V 443.8 C 0,458.2 12,469 27.6,469 h 26 C 68,469 76,460.2 76,443.8 v -32.4 c 54,47.2 112.4,70.8 174.8,70.8 z M 452,268.6 c 3.2,0 6.8,0.4 10,1.6 16,5.6 24.4,23.6 18.8,40 -33.2,96.4 -128,163.6 -230.4,163.6 -62.8,0 -122,-24.8 -176,-74 -1.2,-1.2 -2.8,-1.2 -4.4,-0.8 -1.6,0.8 -2.4,2 -2.4,3.6 v 41.2 C 67.6,459 60,461 53.2,461 h -26 C 17.6,461 7.6,455 7.6,443.8 V 300.2 c 0,-4.8 4.8,-9.6 8.4,-13.2 l 0.4,-0.4 v 0 c 3.2,-3.2 11.2,-5.6 16.8,-5.6 h 135.6 c 13.6,0 15.2,13.2 15.2,19.2 v 23.6 c 0,10.8 -4.8,21.6 -15.2,21.6 H 124 c -1.6,0 -3.2,0.8 -3.6,2.4 -0.8,1.6 -0.4,3.2 0.8,4.4 38.4,38 87.2,59.6 132.8,59.6 75.6,0 143.2,-49.2 168.4,-122 2.8,-8 8.4,-14.8 16,-18.4 4.8,-2 9.2,-2.8 13.6,-2.8 z"
   id="path14"
   inkscape:connector-curvature="0" />
<path
   d="m 254.8,462.2 c 54.8,0 108,-20 149.6,-56.8 1.6,-1.6 2,-4 0.4,-5.6 -1.6,-1.6 -4,-2 -5.6,-0.4 -40,35.2 -91.2,54.8 -144.4,54.8 0,0 0,0 -0.4,0 0,0 0,0 -0.4,0 -60.8,0 -116.8,-24 -158.4,-67.6 -4,-4.4 -11.2,-7.2 -18,-7.2 -2.8,0 -7.6,0.4 -10.8,1.6 C 58,384.6 48,393 48,403 v 38.4 H 28 V 302.6 c 0.8,-0.4 1.2,-0.4 2,-0.8 0.8,0 2.4,-0.4 3.6,-0.4 H 164 v 0 23.6 c 0,0 0,0.4 -0.4,0.4 H 124 c -9.6,0 -17.6,5.2 -21.2,13.2 -3.6,8.4 -2.4,17.6 4,24.8 37.2,42.8 91.2,67.6 147.6,67.6 84,0 158.8,-54.4 186.4,-134.8 2,-6 8.4,-9.2 14.4,-7.2 2.8,1.2 5.2,3.2 6.4,6 1.2,2.8 1.6,6 0.4,9.2 -9.6,27.6 -23.6,52.4 -42.4,74 -1.6,1.6 -1.2,4 0.4,5.6 1.6,1.6 4.4,1.2 5.6,-0.4 19.6,-22.4 34.4,-48.4 44,-76.8 1.6,-4.8 1.6,-10.4 -0.8,-15.2 -2.4,-4.8 -6.4,-8.4 -11.2,-10 -2,-0.8 -4.4,-1.2 -6.4,-1.2 -8.4,0 -15.6,5.2 -18.4,13.2 C 406.4,371 334.4,423 254,423 c -54.4,0 -106,-23.6 -141.6,-64.8 -4,-4.8 -4.8,-10.4 -2.4,-16 2.4,-5.2 7.6,-8.4 14,-8.4 h 39.6 c 4.4,0 8,-4 8,-8.4 v -24.8 c 0,-3.6 -3.2,-7.2 -8,-7.2 H 33.2 c -4.8,0 -6.8,0.8 -7.6,1.6 h -0.4 c -1.6,0.4 -5.2,2 -5.2,5.6 v 141.6 c 0,4.4 2.8,7.2 7.6,7.2 h 22 c 4,0 6.8,-3.2 6.8,-7.6 V 403 c 0,-5.6 6.8,-12 13.6,-14.4 1.6,-0.8 5.6,-1.2 8,-1.2 4.4,0 9.2,2 12,4.8 43.2,45.2 101.6,70.4 164.4,70.4 -0.4,-0.4 0,-0.4 0.4,-0.4 -0.4,0 -0.4,0 0,0 z"
   id="path16"
   inkscape:connector-curvature="0" />
<g
   id="g18"
   transform="matrix(-1,0,0,1,494.4,0)">
</g>
<g
   id="g20"
   transform="matrix(-1,0,0,1,494.4,0)">
</g>
<g
   id="g22"
   transform="matrix(-1,0,0,1,494.4,0)">
</g>
<g
   id="g24"
   transform="matrix(-1,0,0,1,494.4,0)">
</g>
<g
   id="g26"
   transform="matrix(-1,0,0,1,494.4,0)">
</g>
<g
   id="g28"
   transform="matrix(-1,0,0,1,494.4,0)">
</g>
<g
   id="g30"
   transform="matrix(-1,0,0,1,494.4,0)">
</g>
<g
   id="g32"
   transform="matrix(-1,0,0,1,494.4,0)">
</g>
<g
   id="g34"
   transform="matrix(-1,0,0,1,494.4,0)">
</g>
<g
   id="g36"
   transform="matrix(-1,0,0,1,494.4,0)">
</g>
<g
   id="g38"
   transform="matrix(-1,0,0,1,494.4,0)">
</g>
<g
   id="g40"
   transform="matrix(-1,0,0,1,494.4,0)">
</g>
<g
   id="g42"
   transform="matrix(-1,0,0,1,494.4,0)">
</g>
<g
   id="g44"
   transform="matrix(-1,0,0,1,494.4,0)">
</g>
<g
   id="g46"
   transform="matrix(-1,0,0,1,494.4,0)">
</g>
</svg>